<?xml version="1.0" encoding="UTF-8" standalone="no"?>
<svg
   xmlns:dc="http://purl.org/dc/elements/1.1/"
   xmlns:cc="http://creativecommons.org/ns#"
   xmlns:rdf="http://www.w3.org/1999/02/22-rdf-syntax-ns#"
   xmlns:svg="http://www.w3.org/2000/svg"
   xmlns="http://www.w3.org/2000/svg"
   xmlns:sodipodi="http://sodipodi.sourceforge.net/DTD/sodipodi-0.dtd"
   xmlns:inkscape="http://www.inkscape.org/namespaces/inkscape"
   sodipodi:docname="flag.svg"
   inkscape:version="1.0 (4035a4fb49, 2020-05-01)"
   id="svg8"
   version="1.1"
   viewBox="0 0 1058.3334 396.875"
   height="396.875mm"
   width="1058.3334mm">
  <defs
     id="defs2" />
  <sodipodi:namedview
     inkscape:window-maximized="1"
     inkscape:window-y="-8"
     inkscape:window-x="1912"
     inkscape:window-height="1017"
     inkscape:window-width="1920"
     fit-margin-bottom="0"
     fit-margin-right="0"
     fit-margin-left="0"
     fit-margin-top="0"
     showgrid="false"
     inkscape:document-rotation="0"
     inkscape:current-layer="layer1"
     inkscape:document-units="mm"
     inkscape:cy="831.54744"
     inkscape:cx="2030.026"
     inkscape:zoom="0.24748737"
     inkscape:pageshadow="2"
     inkscape:pageopacity="0.0"
     borderopacity="1.0"
     bordercolor="#666666"
     pagecolor="#ffffff"
     id="base"
     inkscape:snap-text-baseline="false" />
  <metadata
     id="metadata5">
    <rdf:RDF>
      <cc:Work
         rdf:about="">
        <dc:format>image/svg+xml</dc:format>
        <dc:type
           rdf:resource="http://purl.org/dc/dcmitype/StillImage" />
        <dc:title />
      </cc:Work>
    </rdf:RDF>
  </metadata>
  <g
     transform="translate(415.01782,66.523796)"
     id="layer1"
     inkscape:groupmode="layer"
     inkscape:label="レイヤー 1">
    <g
       id="g995">
      <rect
         style="fill:#d40000;stroke-width:0.264583"
         id="rect14"
         width="1058.3334"
         height="396.875"
         x="-415.01782"
         y="-66.523796" />
      <g
         style="font-style:normal;font-variant:normal;font-weight:bold;font-stretch:normal;font-size:70.5556px;line-height:1.25;font-family:sans-serif;-inkscape-font-specification:'sans-serif, Bold';font-variant-ligatures:normal;font-variant-caps:normal;font-variant-numeric:normal;font-variant-east-asian:normal;fill:#ffffff;fill-opacity:1;stroke:none;stroke-width:0.264583"
         id="text965">
        <path
           id="path979"
           d="m -273.39017,63.769669 h -13.16028 V 29.422043 l -9.50847,22.289783 h -9.12951 l -9.50847,-22.289783 v 34.347626 h -12.47125 V 12.472162 h 15.36514 l 11.54107,25.734881 11.50663,-25.734881 h 15.36514 z" />
        <path
           id="path981"
           d="m -237.59561,53.675532 v -8.061529 q -2.51492,0.206706 -5.44325,0.585667 -2.92833,0.34451 -4.44418,0.826823 -1.86035,0.585667 -2.85943,1.722549 -0.96462,1.102431 -0.96462,2.928333 0,1.205785 0.2067,1.963706 0.20671,0.757922 1.03353,1.446941 0.79237,0.68902 1.8948,1.033529 1.10244,0.310059 3.4451,0.310059 1.86035,0 3.75516,-0.757921 1.92925,-0.757922 3.37619,-1.998157 z m 0,5.99447 q -0.99907,0.757922 -2.48047,1.825902 -1.48139,1.06798 -2.79053,1.688098 -1.8259,0.826823 -3.7896,1.205784 -1.96371,0.413412 -4.30637,0.413412 -5.51216,0 -9.23287,-3.410647 -3.7207,-3.410647 -3.7207,-8.716097 0,-4.237471 1.8948,-6.924647 1.8948,-2.687176 5.37435,-4.23747 3.4451,-1.550294 8.54385,-2.204863 5.09874,-0.654568 10.57645,-0.964627 v -0.206706 q 0,-3.203941 -2.61828,-4.409725 -2.61827,-1.240235 -7.71702,-1.240235 -3.06613,0 -6.54568,1.102431 -3.47955,1.06798 -4.99539,1.653647 h -1.13689 v -9.336215 q 1.96371,-0.516765 6.37343,-1.205785 4.44418,-0.72347 8.88836,-0.72347 10.57645,0 15.26178,3.272843 4.71978,3.238392 4.71978,10.197489 v 26.320548 h -12.299 z" />
        <path
           id="path983"
           d="m -201.49098,63.769669 h -12.40235 V 25.08122 h 12.40235 z m 0.34451,-44.200605 h -13.09137 v -9.405117 h 13.09137 z" />
        <path
           id="path985"
           d="m -152.15717,63.769669 h -12.40236 v -4.030765 q -3.20394,2.618274 -5.99447,3.85851 -2.79053,1.240235 -6.44233,1.240235 -7.06245,0 -11.29992,-5.443255 -4.23747,-5.443254 -4.23747,-14.676116 0,-4.92649 1.41249,-8.716098 1.44694,-3.824058 3.92741,-6.545686 2.34267,-2.583823 5.68441,-3.996313 3.34175,-1.446941 6.68349,-1.446941 3.47955,0 5.68441,0.757921 2.23932,0.723471 4.58198,1.860353 V 10.163947 h 12.40236 z M -164.55953,53.089865 V 34.107376 q -1.30913,-0.551215 -2.75607,-0.792372 -1.44694,-0.241157 -2.65273,-0.241157 -4.89204,0 -7.33806,3.066137 -2.44602,3.031686 -2.44602,8.44049 0,5.684411 1.96371,8.268235 1.9637,2.549372 6.30453,2.549372 1.6881,0 3.5829,-0.620118 1.8948,-0.654568 3.34174,-1.688098 z" />
        <path
           id="path987"
           d="m -117.01718,53.675532 v -8.061529 q -2.51492,0.206706 -5.44325,0.585667 -2.92833,0.34451 -4.44418,0.826823 -1.86035,0.585667 -2.85943,1.722549 -0.96462,1.102431 -0.96462,2.928333 0,1.205785 0.2067,1.963706 0.20671,0.757922 1.03353,1.446941 0.79237,0.68902 1.8948,1.033529 1.10244,0.310059 3.4451,0.310059 1.86036,0 3.75516,-0.757921 1.92925,-0.757922 3.37619,-1.998157 z m 0,5.99447 q -0.99907,0.757922 -2.48047,1.825902 -1.48139,1.06798 -2.79052,1.688098 -1.82591,0.826823 -3.78961,1.205784 -1.96371,0.413412 -4.30637,0.413412 -5.51216,0 -9.23287,-3.410647 -3.7207,-3.410647 -3.7207,-8.716097 0,-4.237471 1.8948,-6.924647 1.89481,-2.687176 5.37435,-4.23747 3.4451,-1.550294 8.54385,-2.204863 5.09874,-0.654568 10.57645,-0.964627 v -0.206706 q 0,-3.203941 -2.61828,-4.409725 -2.61827,-1.240235 -7.71702,-1.240235 -3.06613,0 -6.54568,1.102431 -3.47955,1.06798 -4.99539,1.653647 h -1.13689 v -9.336215 q 1.96371,-0.516765 6.37343,-1.205785 4.44418,-0.72347 8.88836,-0.72347 10.57645,0 15.26178,3.272843 4.71978,3.238392 4.71978,10.197489 v 26.320548 h -12.299 z" />
        <path
           id="path989"
           d="m -52.249338,63.769669 h -14.43496 L -77.536356,46.92314 -80.912551,51.022807 V 63.769669 H -93.314904 V 10.163947 h 12.402353 V 42.168905 L -67.545572,25.08122 h 14.297156 l -13.918195,16.674274 z" />
        <path
           id="path991"
           d="M -7.8075808,46.716434 H -36.195187 q 0.275608,4.54753 3.445098,6.959098 3.203941,2.411568 9.405117,2.411568 3.927412,0 7.613666,-1.41249 3.686255,-1.41249 5.8222155,-3.031686 h 1.3780391 v 9.956333 q -4.2030196,1.688098 -7.9237246,2.446019 -3.720706,0.757922 -8.233784,0.757922 -11.644431,0 -17.845607,-5.236549 -6.201176,-5.236548 -6.201176,-14.917273 0,-9.577372 5.856667,-15.158431 5.891117,-5.615509 16.123057,-5.615509 9.439568,0 14.193803,4.788686 4.7542352,4.754235 4.7542352,13.711489 z M -20.141031,39.447278 q -0.103353,-3.89296 -1.929255,-5.856666 -1.825902,-1.963706 -5.684411,-1.963706 -3.582902,0 -5.891117,1.860353 -2.308216,1.860353 -2.583824,5.960019 z" />
        <path
           id="path993"
           d="m 24.817498,64.768747 q -5.718863,0 -10.57645,-1.688098 Q 9.4179106,61.392551 5.9383618,58.050806 2.458813,54.709061 0.52955824,49.71367 -1.3652456,44.718278 -1.3652456,38.172592 q 0,-6.097823 1.82590189,-11.058764 1.82590181,-4.960941 5.30545061,-8.509392 3.3417449,-3.410646 8.2682351,-5.270999 4.96094,-1.860353 10.817607,-1.860353 3.238392,0 5.822215,0.378961 2.618274,0.344509 4.823137,0.930176 2.308215,0.654569 4.168568,1.481392 1.894804,0.792373 3.307294,1.481392 V 28.181808 H 41.45732 Q 40.492693,27.354985 39.011301,26.218103 37.56436,25.08122 35.704007,23.978789 33.809203,22.876358 31.60434,22.118436 q -2.204862,-0.757921 -4.719784,-0.757921 -2.790529,0 -5.30545,0.895725 -2.514922,0.861274 -4.650882,2.893882 -2.032608,1.963706 -3.307294,5.202098 -1.240235,3.238392 -1.240235,7.854823 0,4.823137 1.343588,8.061529 1.378039,3.238392 3.445098,5.098744 2.101509,1.894804 4.685333,2.721628 2.583823,0.792372 5.098744,0.792372 2.411569,0 4.754235,-0.72347 2.377118,-0.723471 4.375275,-1.963706 1.688098,-0.999078 3.135039,-2.135961 1.446941,-1.136882 2.377117,-1.963705 h 1.378039 v 12.264548 q -1.929255,0.861274 -3.686254,1.619196 -1.757,0.757921 -3.686255,1.309137 -2.514922,0.72347 -4.719784,1.102431 -2.204863,0.378961 -6.063372,0.378961 z" />
        <path
           id="path995"
           d="M 92.892623,22.394044 H 76.872918 V 63.769669 H 63.643743 V 22.394044 H 47.624038 v -9.921882 h 45.268585 z" />
        <path
           id="path997"
           d="m 137.60999,22.394044 h -23.59892 v 9.542921 h 21.87638 v 9.921882 H 114.01107 V 63.769669 H 100.8508 V 12.472162 h 36.75919 z" />
        <path
           id="path999"
           d="m 183.42979,77.274452 h -9.43956 q -6.68349,0 -10.67981,-3.410647 -3.96186,-3.376196 -3.96186,-9.921882 V 58.87763 q 0,-6.132274 -2.72163,-8.509392 -2.72162,-2.411568 -8.785,-2.411568 h -2.41156 v -8.474941 h 2.41156 q 6.06338,0 8.785,-2.377117 2.72163,-2.411569 2.72163,-8.543843 v -5.064294 q 0,-6.545686 3.96186,-9.921881 3.99632,-3.410647 10.67981,-3.410647 h 9.43956 v 7.717019 h -3.92741 q -2.06706,0 -3.75515,0.310059 -1.65365,0.310058 -2.79053,1.171333 -1.17134,0.895725 -1.757,2.618274 -0.58567,1.688098 -0.58567,4.375274 v 3.755157 q 0,4.823137 -2.72163,8.061529 -2.68717,3.238392 -7.68256,5.133196 v 0.826823 q 4.99539,1.894804 7.68256,5.133196 2.72163,3.238392 2.72163,8.061529 v 3.755156 q 0,2.687177 0.58567,4.375275 0.58566,1.722548 1.757,2.618274 1.10243,0.895725 2.79053,1.171333 1.68809,0.310059 3.75515,0.310059 h 3.92741 z" />
        <path
           id="path1001"
           d="m 237.96571,47.646611 q 0,7.579215 -6.44233,12.33345 -6.40788,4.719784 -17.43219,4.719784 -6.37344,0 -11.12767,-1.102431 -4.71978,-1.136883 -8.8539,-2.859431 v -12.299 h 1.44694 q 4.09967,3.272843 9.16396,5.029843 5.09874,1.757 9.78408,1.757 1.20578,0 3.16949,-0.206706 1.9637,-0.206706 3.20394,-0.689019 1.51584,-0.620118 2.48047,-1.550294 0.99908,-0.930177 0.99908,-2.756079 0,-1.688098 -1.44694,-2.893882 -1.41249,-1.240235 -4.16857,-1.894804 -2.89388,-0.689019 -6.13228,-1.274686 -3.20394,-0.620117 -6.02892,-1.550294 -6.47678,-2.101509 -9.33621,-5.684411 -2.82498,-3.617353 -2.82498,-8.957254 0,-7.165804 6.40788,-11.678882 6.44233,-4.547529 16.53647,-4.547529 5.06429,0 9.99078,0.999078 4.96094,0.964628 8.5783,2.44602 v 11.816685 h -1.41249 q -3.10059,-2.48047 -7.61367,-4.134117 -4.47863,-1.688098 -9.16396,-1.688098 -1.65365,0 -3.30729,0.241157 -1.6192,0.206706 -3.13504,0.826823 -1.34359,0.516765 -2.30822,1.584745 -0.96463,1.03353 -0.96463,2.377118 0,2.032607 1.5503,3.135039 1.55029,1.06798 5.85666,1.963705 2.82498,0.585667 5.40881,1.136883 2.61827,0.551215 5.61551,1.515843 5.89111,1.929254 8.68164,5.270999 2.82498,3.307294 2.82498,8.612745 z" />
        <path
           id="path1003"
           d="M 293.56955,12.472162 274.86267,63.769669 H 260.04875 L 241.34187,12.472162 h 13.88374 l 12.40235,36.035723 12.40236,-36.035723 z" />
        <path
           id="path1005"
           d="m 346.31402,60.841335 q -3.4451,1.343589 -9.12951,2.687177 -5.68441,1.309137 -11.33437,1.309137 -13.09138,0 -20.49834,-7.096902 -7.40696,-7.131352 -7.40696,-19.671508 0,-11.954489 7.47587,-19.258097 7.47586,-7.338058 20.84284,-7.338058 5.06429,0 9.64627,0.930176 4.58198,0.895726 10.19749,3.617353 v 12.023391 h -1.48139 q -0.96463,-0.72347 -2.82498,-2.032607 -1.86035,-1.343588 -3.5829,-2.273765 -1.99816,-1.102431 -4.68534,-1.894804 -2.65272,-0.792372 -5.64996,-0.792372 -3.514,0 -6.37343,1.033529 -2.85943,1.033529 -5.13319,3.16949 -2.17041,2.067059 -3.4451,5.271 -1.24024,3.16949 -1.24024,7.338058 0,8.509392 4.51308,13.02247 4.51308,4.513078 13.33253,4.513078 0.75792,0 1.65365,-0.03445 0.93017,-0.03445 1.6881,-0.103353 V 45.200591 h -10.23195 v -9.680724 h 23.66783 z" />
        <path
           id="path1007"
           d="m 402.29683,75.827511 h -51.26305 v -7.269156 h 51.26305 z" />
        <path
           id="path1009"
           d="m -315.45482,151.96417 h -12.40235 v -38.68845 h 12.40235 z m 0.34451,-44.2006 h -13.09137 v -9.405119 h 13.09137 z" />
        <path
           id="path1011"
           d="m -265.91431,124.54119 v 27.42298 h -12.47126 v -19.327 q 0,-2.82498 -0.1378,-4.78868 -0.1378,-1.99816 -0.75792,-3.23839 -0.62012,-1.24024 -1.89481,-1.79146 -1.24023,-0.58566 -3.514,-0.58566 -1.8259,0 -3.54845,0.75792 -1.72254,0.72347 -3.10058,1.55029 v 27.42298 h -12.40236 v -38.68845 h 12.40236 v 4.27193 q 3.20394,-2.51493 6.13227,-3.92742 2.92833,-1.41249 6.47678,-1.41249 3.82406,0 6.7524,1.72255 2.92833,1.6881 4.58198,4.99539 3.7207,-3.13503 7.2347,-4.92649 3.514,-1.79145 6.8902,-1.79145 6.27007,0 9.50847,3.75516 3.27284,3.75516 3.27284,10.81761 v 25.18366 h -12.47125 v -19.327 q 0,-2.85943 -0.13781,-4.82313 -0.10335,-1.96371 -0.72347,-3.20394 -0.58567,-1.24024 -1.86035,-1.79146 -1.27469,-0.58566 -3.5829,-0.58566 -1.5503,0 -3.03169,0.55121 -1.48139,0.51677 -3.61735,1.757 z" />
        <path
           id="path1013"
           d="m -205.6251,141.87004 v -8.06153 q -2.51492,0.2067 -5.44326,0.58566 -2.92833,0.34451 -4.44417,0.82683 -1.86035,0.58566 -2.85943,1.72255 -0.96463,1.10243 -0.96463,2.92833 0,1.20578 0.20671,1.9637 0.2067,0.75793 1.03353,1.44695 0.79237,0.68902 1.8948,1.03353 1.10243,0.31005 3.4451,0.31005 1.86035,0 3.75515,-0.75792 1.92926,-0.75792 3.3762,-1.99815 z m 0,5.99447 q -0.99908,0.75792 -2.48047,1.8259 -1.48139,1.06798 -2.79053,1.6881 -1.8259,0.82682 -3.78961,1.20578 -1.9637,0.41341 -4.30637,0.41341 -5.51216,0 -9.23286,-3.41065 -3.72071,-3.41064 -3.72071,-8.71609 0,-4.23747 1.89481,-6.92465 1.8948,-2.68718 5.37435,-4.23747 3.4451,-1.55029 8.54384,-2.20486 5.09875,-0.65457 10.57645,-0.96463 v -0.20671 q 0,-3.20394 -2.61827,-4.40972 -2.61828,-1.24024 -7.71702,-1.24024 -3.06614,0 -6.54569,1.10244 -3.47955,1.06798 -4.99539,1.65364 h -1.13688 v -9.33621 q 1.9637,-0.51677 6.37343,-1.20579 4.44418,-0.72347 8.88835,-0.72347 10.57645,0 15.26178,3.27285 4.71979,3.23839 4.71979,10.19749 v 26.32054 h -12.299 z" />
        <path
           id="path1015"
           d="m -144.30236,147.52 q 0,5.44325 -1.55029,9.16396 -1.5503,3.7207 -4.34083,5.82221 -2.79053,2.13596 -6.75239,3.06614 -3.92741,0.96463 -8.88835,0.96463 -4.03077,0 -7.95818,-0.48232 -3.89296,-0.48231 -6.75239,-1.17133 v -9.68073 h 1.51584 q 2.27377,0.89573 5.54661,1.6192 3.27284,0.75792 5.85667,0.75792 3.44509,0 5.58106,-0.65457 2.17041,-0.62011 3.30729,-1.79145 1.06798,-1.10243 1.55029,-2.82498 0.48232,-1.72255 0.48232,-4.13412 v -0.72347 q -2.23932,1.82591 -4.96094,2.89389 -2.72163,1.06798 -6.06338,1.06798 -8.13043,0 -12.54015,-4.89204 -4.40973,-4.89204 -4.40973,-14.88282 0,-4.78869 1.34359,-8.26824 1.34359,-3.47955 3.78961,-6.06337 2.27376,-2.41157 5.58106,-3.75516 3.34174,-1.34359 6.82129,-1.34359 3.13504,0 5.68441,0.75793 2.58383,0.72347 4.68533,2.0326 l 0.44787,-1.72255 h 12.02339 z m -12.40235,-7.75147 v -17.53555 q -1.06798,-0.44786 -2.61828,-0.68902 -1.55029,-0.27561 -2.79053,-0.27561 -4.89204,0 -7.33805,2.82498 -2.44602,2.79053 -2.44602,7.82037 0,5.58106 2.06705,7.78592 2.10151,2.20487 6.20118,2.20487 1.86035,0 3.6518,-0.58567 1.79145,-0.58567 3.27285,-1.55029 z" />
        <path
           id="path1017"
           d="m -94.486246,134.91094 h -28.387604 q 0.27561,4.54753 3.4451,6.9591 3.20394,2.41156 9.40511,2.41156 3.92741,0 7.61367,-1.41249 3.686254,-1.41249 5.822214,-3.03168 h 1.378039 v 9.95633 q -4.203019,1.6881 -7.923723,2.44602 -3.72071,0.75792 -8.23379,0.75792 -11.64443,0 -17.8456,-5.23655 -6.20118,-5.23655 -6.20118,-14.91727 0,-9.57737 5.85667,-15.15843 5.89112,-5.61551 16.12306,-5.61551 9.43956,0 14.193799,4.78869 4.754235,4.75423 4.754235,13.71149 z m -12.333454,-7.26916 q -0.10335,-3.89296 -1.92925,-5.85666 -1.8259,-1.96371 -5.68441,-1.96371 -3.5829,0 -5.89112,1.86035 -2.30822,1.86036 -2.58382,5.96002 z" />
        <path
           id="path1019"
           d="m -52.111541,139.69962 q 0,5.99447 -5.374352,9.68073 -5.374353,3.6518 -14.710568,3.6518 -5.167647,0 -9.370666,-0.96462 -4.203019,-0.96463 -6.752392,-2.13597 v -10.19748 h 1.136883 q 0.930176,0.65456 2.13596,1.44694 1.240236,0.75792 3.479549,1.65364 1.929255,0.79238 4.375274,1.37804 2.44602,0.55122 5.236549,0.55122 3.651804,0 5.408804,-0.79237 1.756999,-0.82683 1.756999,-2.41157 0,-1.41249 -1.033529,-2.03261 -1.033529,-0.65457 -3.927411,-1.24024 -1.378039,-0.31005 -3.755157,-0.65456 -2.342666,-0.37897 -4.271921,-0.89573 -5.271,-1.37804 -7.820372,-4.27192 -2.549373,-2.92833 -2.549373,-7.26916 0,-5.58106 5.271,-9.26731 5.305451,-3.72071 14.469411,-3.72071 4.340823,0 8.302685,0.89573 3.996314,0.86127 6.235628,1.86035 v 9.78408 h -1.067981 q -2.756078,-1.8948 -6.304529,-3.06614 -3.514,-1.20578 -7.131352,-1.20578 -2.997235,0 -5.064294,0.82682 -2.032608,0.82683 -2.032608,2.34267 0,1.37804 0.930177,2.10151 0.930176,0.72347 4.375274,1.44694 1.894804,0.37896 4.065215,0.75792 2.204863,0.34451 4.409725,0.89573 4.892039,1.27468 7.234706,4.03076 2.342666,2.72163 2.342666,6.82129 z" />
        <path
           id="path1021"
           d="m 1.011858,164.02201 h -51.263055 v -7.26915 H 1.011858 Z" />
        <path
           id="path1023"
           d="m 29.743994,141.87004 v -8.06153 q -2.514921,0.2067 -5.443254,0.58566 -2.928333,0.34451 -4.444177,0.82683 -1.860352,0.58566 -2.859431,1.72255 -0.964627,1.10243 -0.964627,2.92833 0,1.20578 0.206706,1.9637 0.206706,0.75793 1.033529,1.44695 0.792373,0.68902 1.894804,1.03353 1.102431,0.31005 3.445098,0.31005 1.860353,0 3.755156,-0.75792 1.929255,-0.75792 3.376196,-1.99815 z m 0,5.99447 q -0.999078,0.75792 -2.48047,1.8259 -1.481392,1.06798 -2.790529,1.6881 -1.825902,0.82682 -3.789608,1.20578 -1.963706,0.41341 -4.306372,0.41341 -5.512157,0 -9.2328624,-3.41065 -3.7207056,-3.41064 -3.7207056,-8.71609 0,-4.23747 1.8948037,-6.92465 1.8948038,-2.68718 5.3743523,-4.23747 3.445098,-1.55029 8.543843,-2.20486 5.098745,-0.65457 10.57645,-0.96463 v -0.20671 q 0,-3.20394 -2.618274,-4.40972 -2.618275,-1.24024 -7.717019,-1.24024 -3.066137,0 -6.545686,1.10244 -3.4795489,1.06798 -4.9953919,1.65364 H 6.7996428 v -9.33621 q 1.9637057,-0.51677 6.3734312,-1.20579 4.444176,-0.72347 8.888352,-0.72347 10.57645,0 15.261783,3.27285 4.719784,3.23839 4.719784,10.19749 v 26.32054 H 29.743994 Z" />
        <path
           id="path1025"
           d="M 81.489331,125.09241 H 80.3869 q -0.792372,-0.27561 -2.549372,-0.41341 -1.757,-0.13781 -2.928333,-0.13781 -2.652726,0 -4.685333,0.34451 -2.032608,0.34451 -4.375275,1.17134 v 25.90713 H 53.446235 v -38.68845 h 12.402352 v 5.68442 q 4.099667,-3.514 7.131353,-4.65089 3.031686,-1.17133 5.581058,-1.17133 0.654569,0 1.481392,0.0345 0.826824,0.0344 1.446941,0.10335 z" />
        <path
           id="path1027"
           d="M 126.68903,134.91094 H 98.301426 q 0.275608,4.54753 3.445094,6.9591 3.20394,2.41156 9.40512,2.41156 3.92741,0 7.61367,-1.41249 3.68625,-1.41249 5.82221,-3.03168 h 1.37804 v 9.95633 q -4.20302,1.6881 -7.92372,2.44602 -3.72071,0.75792 -8.23379,0.75792 -11.644428,0 -17.845604,-5.23655 -6.201176,-5.23655 -6.201176,-14.91727 0,-9.57737 5.856666,-15.15843 5.891117,-5.61551 16.123054,-5.61551 9.43957,0 14.19381,4.78869 4.75423,4.75423 4.75423,13.71149 z m -12.33345,-7.26916 q -0.10335,-3.89296 -1.92925,-5.85666 -1.82591,-1.96371 -5.68441,-1.96371 -3.58291,0 -5.89112,1.86035 -2.308217,1.86036 -2.583825,5.96002 z" />
        <path
           id="path1029"
           d="M 180.29476,164.02201 H 129.0317 v -7.26915 h 51.26306 z" />
        <path
           id="path1031"
           d="m 205.75405,152.9977 q -5.06429,0 -9.26731,-1.20578 -4.16857,-1.20579 -7.26916,-3.72071 -3.06614,-2.51492 -4.75424,-6.33898 -1.68809,-3.82406 -1.68809,-8.95725 0,-5.40881 1.79145,-9.33622 1.8259,-3.92741 5.06429,-6.51123 3.13504,-2.44602 7.23471,-3.5829 4.09966,-1.13689 8.50939,-1.13689 3.96186,0 7.30361,0.86128 3.34174,0.86127 6.23562,2.23931 v 10.57645 h -1.757 q -0.72347,-0.62012 -1.757,-1.44694 -0.99908,-0.82682 -2.48047,-1.6192 -1.41249,-0.75792 -3.10059,-1.24023 -1.68809,-0.51676 -3.92741,-0.51676 -4.96094,0 -7.64811,3.16949 -2.65273,3.13503 -2.65273,8.54384 0,5.58106 2.72163,8.47494 2.75608,2.89388 7.78592,2.89388 2.34267,0 4.20302,-0.51676 1.8948,-0.55122 3.13504,-1.27469 1.17133,-0.68902 2.06706,-1.44694 0.89572,-0.75792 1.65364,-1.48139 h 1.757 v 10.57645 q -2.92833,1.37804 -6.13227,2.17041 -3.16949,0.82682 -7.028,0.82682 z" />
        <path
           id="path1033"
           d="m 265.93987,151.96417 h -12.47125 v -19.18919 q 0,-2.34267 -0.24116,-4.65088 -0.24115,-2.34267 -0.82682,-3.4451 -0.68902,-1.27469 -2.03261,-1.86036 -1.30914,-0.58566 -3.68625,-0.58566 -1.6881,0 -3.4451,0.55121 -1.72255,0.55122 -3.75516,1.757 v 27.42298 H 227.07917 V 98.358451 h 12.40235 v 19.189199 q 3.3073,-2.58383 6.33898,-3.96187 3.06614,-1.37804 6.78684,-1.37804 6.27008,0 9.78408,3.65181 3.54845,3.6518 3.54845,10.92096 z" />
        <path
           id="path1035"
           d="m 315.92828,151.96417 h -12.40236 v -4.27192 q -3.44509,2.61828 -6.30452,3.99631 -2.85944,1.34359 -6.8213,1.34359 -6.40788,0 -9.88743,-3.68625 -3.4451,-3.68626 -3.4451,-10.88651 v -25.18367 h 12.47126 v 19.1892 q 0,2.92833 0.17225,4.89204 0.20671,1.92925 0.89573,3.20394 0.65457,1.27468 1.9637,1.86035 1.34359,0.58567 3.72071,0.58567 1.58474,0 3.514,-0.58567 1.92925,-0.58567 3.7207,-1.72255 v -27.42298 h 12.40236 z" />
        <path
           id="path1037"
           d="m 366.53674,151.96417 h -12.47126 v -19.18919 q 0,-2.34267 -0.24115,-4.65088 -0.24116,-2.34267 -0.82683,-3.4451 -0.68902,-1.27469 -2.03261,-1.86036 -1.30913,-0.58566 -3.68625,-0.58566 -1.6881,0 -3.4451,0.55121 -1.72255,0.55122 -3.75516,1.757 v 27.42298 h -12.40235 v -38.68845 h 12.40235 v 4.27193 q 3.3073,-2.58383 6.33898,-3.96187 3.06614,-1.37804 6.78685,-1.37804 6.27008,0 9.78408,3.65181 3.54845,3.6518 3.54845,10.92096 z" />
        <path
           id="path1039"
           d="M 419.04006,151.96417 H 404.6051 l -10.85206,-16.84653 -3.37619,4.09967 v 12.74686 H 377.97449 V 98.358451 h 12.40236 v 32.004959 l 13.36698,-17.08769 h 14.29715 L 404.12279,129.95 Z" />
        <path
           id="path1041"
           d="m 463.48182,134.91094 h -28.38761 q 0.27561,4.54753 3.4451,6.9591 3.20394,2.41156 9.40512,2.41156 3.92741,0 7.61366,-1.41249 3.68626,-1.41249 5.82222,-3.03168 h 1.37804 v 9.95633 q -4.20302,1.6881 -7.92373,2.44602 -3.7207,0.75792 -8.23378,0.75792 -11.64443,0 -17.84561,-5.23655 -6.20117,-5.23655 -6.20117,-14.91727 0,-9.57737 5.85666,-15.15843 5.89112,-5.61551 16.12306,-5.61551 9.43957,0 14.1938,4.78869 4.75424,4.75423 4.75424,13.71149 z m -12.33345,-7.26916 q -0.10336,-3.89296 -1.92926,-5.85666 -1.8259,-1.96371 -5.68441,-1.96371 -3.5829,0 -5.89112,1.86035 -2.30821,1.86036 -2.58382,5.96002 z" />
        <path
           id="path1043"
           d="m 505.85646,139.69962 q 0,5.99447 -5.37435,9.68073 -5.37435,3.6518 -14.71057,3.6518 -5.16765,0 -9.37066,-0.96462 -4.20302,-0.96463 -6.7524,-2.13597 v -10.19748 h 1.13689 q 0.93017,0.65456 2.13596,1.44694 1.24023,0.75792 3.47955,1.65364 1.92925,0.79238 4.37527,1.37804 2.44602,0.55122 5.23655,0.55122 3.6518,0 5.4088,-0.79237 1.757,-0.82683 1.757,-2.41157 0,-1.41249 -1.03353,-2.03261 -1.03353,-0.65457 -3.92741,-1.24024 -1.37804,-0.31005 -3.75516,-0.65456 -2.34266,-0.37897 -4.27192,-0.89573 -5.271,-1.37804 -7.82037,-4.27192 -2.54937,-2.92833 -2.54937,-7.26916 0,-5.58106 5.271,-9.26731 5.30545,-3.72071 14.46941,-3.72071 4.34082,0 8.30268,0.89573 3.99632,0.86127 6.23563,1.86035 v 9.78408 h -1.06798 q -2.75608,-1.8948 -6.30453,-3.06614 -3.514,-1.20578 -7.13135,-1.20578 -2.99724,0 -5.06429,0.82682 -2.03261,0.82683 -2.03261,2.34267 0,1.37804 0.93017,2.10151 0.93018,0.72347 4.37528,1.44694 1.8948,0.37896 4.06521,0.75792 2.20487,0.34451 4.40973,0.89573 4.89204,1.27468 7.23471,4.03076 2.34266,2.72163 2.34266,6.82129 z" />
        <path
           id="path1045"
           d="m 558.97988,164.02201 h -51.26306 v -7.26915 h 51.26306 z" />
        <path
           id="path1047"
           d="m -288.30745,220.83168 q 0,9.54292 -5.58106,15.05507 -5.5466,5.47771 -15.60629,5.47771 -10.05968,0 -15.64074,-5.47771 -5.54661,-5.51215 -5.54661,-15.05507 0,-9.61183 5.58106,-15.08953 5.61551,-5.47771 15.60629,-5.47771 10.12859,0 15.64074,5.51216 5.54661,5.51216 5.54661,15.05508 z m -15.26178,9.40511 q 1.20578,-1.48139 1.79145,-3.54845 0.62012,-2.10151 0.62012,-5.78776 0,-3.41065 -0.62012,-5.71886 -0.62012,-2.30822 -1.72255,-3.68626 -1.10243,-1.41249 -2.65272,-1.99815 -1.5503,-0.58567 -3.34175,-0.58567 -1.79145,0 -3.20394,0.48231 -1.37804,0.48232 -2.65273,1.92926 -1.13688,1.34359 -1.8259,3.68625 -0.65457,2.34267 -0.65457,5.89112 0,3.16949 0.58567,5.51216 0.58567,2.30821 1.72255,3.7207 1.10243,1.34359 2.61827,1.96371 1.5503,0.62011 3.514,0.62011 1.6881,0 3.20394,-0.55121 1.5503,-0.58567 2.61828,-1.92926 z" />
        <path
           id="path1049"
           d="m -254.26988,195.64801 h -0.93018 q -0.82682,-0.24115 -2.17041,-0.55121 -1.30914,-0.31006 -2.82498,-0.31006 -3.6518,0 -4.96094,1.30914 -1.27469,1.30913 -1.27469,5.06429 v 0.31006 h 9.57738 v 8.40604 h -9.16396 v 30.28241 h -12.40236 v -30.28241 h -5.30545 v -8.40604 h 5.30545 v -1.06798 q 0,-7.0969 3.75516,-10.64535 3.78961,-3.54846 11.43772,-3.54846 2.75608,0 4.9954,0.20671 2.23931,0.17226 3.96186,0.48231 z" />
        <path
           id="path1051"
           d="m -204.72938,252.21652 h -51.26305 v -7.26916 h 51.26305 z" />
        <path
           id="path1053"
           d="m -179.27011,241.19221 q -5.06429,0 -9.26731,-1.20579 -4.16857,-1.20578 -7.26915,-3.7207 -3.06614,-2.51493 -4.75424,-6.33898 -1.6881,-3.82406 -1.6881,-8.95726 0,-5.4088 1.79145,-9.33621 1.8259,-3.92742 5.0643,-6.51124 3.13504,-2.44602 7.2347,-3.5829 4.09967,-1.13688 8.50939,-1.13688 3.96187,0 7.30361,0.86127 3.34175,0.86128 6.23563,2.23932 v 10.57645 h -1.757 q -0.72347,-0.62012 -1.757,-1.44695 -0.99908,-0.82682 -2.48047,-1.61919 -1.41249,-0.75792 -3.10059,-1.24024 -1.6881,-0.51676 -3.92741,-0.51676 -4.96094,0 -7.64812,3.16949 -2.65272,3.13504 -2.65272,8.54384 0,5.58106 2.72162,8.47494 2.75608,2.89388 7.78592,2.89388 2.34267,0 4.20302,-0.51676 1.89481,-0.55122 3.13504,-1.27469 1.17134,-0.68902 2.06706,-1.44694 0.89573,-0.75792 1.65365,-1.48139 h 1.757 v 10.57645 q -2.92833,1.37804 -6.13228,2.17041 -3.16949,0.82683 -7.028,0.82683 z" />
        <path
           id="path1055"
           d="m -118.39522,220.83168 q 0,9.54292 -5.58105,15.05507 -5.54661,5.47771 -15.6063,5.47771 -10.05968,0 -15.64074,-5.47771 -5.54661,-5.51215 -5.54661,-15.05507 0,-9.61183 5.58106,-15.08953 5.61551,-5.47771 15.60629,-5.47771 10.12859,0 15.64075,5.51216 5.5466,5.51216 5.5466,15.05508 z m -15.26178,9.40511 q 1.20578,-1.48139 1.79145,-3.54845 0.62012,-2.10151 0.62012,-5.78776 0,-3.41065 -0.62012,-5.71886 -0.62012,-2.30822 -1.72255,-3.68626 -1.10243,-1.41249 -2.65272,-1.99815 -1.5503,-0.58567 -3.34175,-0.58567 -1.79145,0 -3.20394,0.48231 -1.37804,0.48232 -2.65272,1.92926 -1.13689,1.34359 -1.82591,3.68625 -0.65456,2.34267 -0.65456,5.89112 0,3.16949 0.58566,5.51216 0.58567,2.30821 1.72255,3.7207 1.10243,1.34359 2.61828,1.96371 1.55029,0.62011 3.514,0.62011 1.68809,0 3.20394,-0.55121 1.55029,-0.58567 2.61827,-1.92926 z" />
        <path
           id="path1057"
           d="m -69.888243,220.83168 q 0,9.54292 -5.581058,15.05507 -5.546608,5.47771 -15.606293,5.47771 -10.059686,0 -15.640746,-5.47771 -5.54661,-5.51215 -5.54661,-15.05507 0,-9.61183 5.58106,-15.08953 5.61551,-5.47771 15.606296,-5.47771 10.128587,0 15.640744,5.51216 5.546607,5.51216 5.546607,15.05508 z m -15.261783,9.40511 q 1.205784,-1.48139 1.791451,-3.54845 0.620117,-2.10151 0.620117,-5.78776 0,-3.41065 -0.620117,-5.71886 -0.620118,-2.30822 -1.722549,-3.68626 -1.102432,-1.41249 -2.652726,-1.99815 -1.550294,-0.58567 -3.341744,-0.58567 -1.791451,0 -3.203941,0.48231 -1.378039,0.48232 -2.652726,1.92926 -1.136882,1.34359 -1.825901,3.68625 -0.654569,2.34267 -0.654569,5.89112 0,3.16949 0.585667,5.51216 0.585666,2.30821 1.722548,3.7207 1.102432,1.34359 2.618275,1.96371 1.550294,0.62011 3.514,0.62011 1.688097,0 3.20394,-0.55121 1.550295,-0.58567 2.618275,-1.92926 z" />
        <path
           id="path1059"
           d="m -32.887896,213.28691 h -1.102432 q -0.792372,-0.2756 -2.549372,-0.41341 -1.757,-0.1378 -2.928333,-0.1378 -2.652725,0 -4.685333,0.34451 -2.032608,0.34451 -4.375274,1.17133 v 25.90714 h -12.402352 v -38.68845 h 12.402352 v 5.68441 q 4.099666,-3.514 7.131352,-4.65088 3.031686,-1.17134 5.581059,-1.17134 0.654568,0 1.481392,0.0344 0.826823,0.0345 1.446941,0.10336 z" />
        <path
           id="path1061"
           d="M 11.82946,240.15868 H -0.57289237 v -4.03077 q -3.20394093,2.61828 -5.99447013,3.85851 -2.7905293,1.24024 -6.4423325,1.24024 -7.062451,0 -11.299921,-5.44326 -4.237471,-5.44325 -4.237471,-14.67611 0,-4.92649 1.412491,-8.7161 1.446941,-3.82406 3.927411,-6.54569 2.342667,-2.58382 5.684411,-3.99631 3.341745,-1.44694 6.68349,-1.44694 3.479549,0 5.6844116,0.75792 2.2393135,0.72347 4.58198003,1.86035 V 186.55295 H 11.82946 Z M -0.57289237,229.47887 v -18.98249 q -1.30913713,-0.55121 -2.75607823,-0.79237 -1.4469411,-0.24116 -2.6527253,-0.24116 -4.8920391,0 -7.3380581,3.06614 -2.44602,3.03169 -2.44602,8.44049 0,5.68441 1.963706,8.26824 1.963706,2.54937 6.304529,2.54937 1.688098,0 3.5829018,-0.62012 1.8948038,-0.65457 3.34174483,-1.6881 z" />
        <path
           id="path1063"
           d="M 35.945145,240.15868 H 23.542793 v -38.68845 h 12.402352 z m 0.34451,-44.20061 H 23.198283 v -9.40512 h 13.091372 z" />
        <path
           id="path1065"
           d="M 86.519188,240.15868 H 74.047934 v -19.1892 q 0,-2.34267 -0.241157,-4.65088 -0.241156,-2.34267 -0.826823,-3.4451 -0.68902,-1.27468 -2.032608,-1.86035 -1.309137,-0.58567 -3.686254,-0.58567 -1.688098,0 -3.445098,0.55122 -1.722549,0.55121 -3.755157,1.757 v 27.42298 H 47.658485 v -38.68845 h 12.402352 v 4.27192 q 3.307294,-2.58382 6.33898,-3.96186 3.066137,-1.37804 6.786843,-1.37804 6.270078,0 9.784078,3.6518 3.54845,3.6518 3.54845,10.92096 z" />
        <path
           id="path1067"
           d="m 121.38358,230.06454 v -8.06153 q -2.51492,0.20671 -5.44325,0.58567 -2.92834,0.34451 -4.44418,0.82682 -1.86035,0.58567 -2.85943,1.72255 -0.96463,1.10243 -0.96463,2.92833 0,1.20579 0.20671,1.96371 0.2067,0.75792 1.03353,1.44694 0.79237,0.68902 1.8948,1.03353 1.10243,0.31006 3.4451,0.31006 1.86035,0 3.75516,-0.75792 1.92925,-0.75793 3.37619,-1.99816 z m 0,5.99447 q -0.99908,0.75792 -2.48047,1.8259 -1.48139,1.06798 -2.79053,1.6881 -1.8259,0.82682 -3.78961,1.20578 -1.9637,0.41342 -4.30637,0.41342 -5.51215,0 -9.23286,-3.41065 -3.720706,-3.41065 -3.720706,-8.7161 0,-4.23747 1.894804,-6.92465 1.894804,-2.68717 5.374352,-4.23747 3.4451,-1.55029 8.54384,-2.20486 5.09875,-0.65457 10.57645,-0.96463 v -0.2067 q 0,-3.20394 -2.61827,-4.40973 -2.61828,-1.24023 -7.71702,-1.24023 -3.06614,0 -6.54569,1.10243 -3.47954,1.06798 -4.995388,1.65365 H 98.43923 v -9.33622 q 1.96371,-0.51676 6.37343,-1.20578 4.44418,-0.72347 8.88835,-0.72347 10.57645,0 15.26179,3.27284 4.71978,3.23839 4.71978,10.19749 v 26.32055 h -12.299 z" />
        <path
           id="path1069"
           d="m 169.82166,239.81417 q -1.99816,0.51676 -4.23747,0.79237 -2.23932,0.31006 -5.47771,0.31006 -7.23471,0 -10.78316,-2.92834 -3.514,-2.92833 -3.514,-10.02523 v -18.08676 h -5.09874 v -8.40604 h 5.09874 v -11.05877 h 12.40236 v 11.05877 h 11.60998 v 8.40604 h -11.60998 v 13.71149 q 0,2.0326 0.0344,3.54845 0.0344,1.51584 0.55121,2.72162 0.48232,1.20579 1.6881,1.92926 1.24024,0.68902 3.5829,0.68902 0.96463,0 2.51492,-0.41341 1.58475,-0.41342 2.20487,-0.75793 h 1.03353 z" />
        <path
           id="path1071"
           d="m 215.29694,223.10544 h -28.3876 q 0.2756,4.54753 3.44509,6.9591 3.20394,2.41157 9.40512,2.41157 3.92741,0 7.61367,-1.41249 3.68625,-1.41249 5.82221,-3.03169 h 1.37804 v 9.95633 q -4.20302,1.6881 -7.92372,2.44602 -3.72071,0.75793 -8.23379,0.75793 -11.64443,0 -17.8456,-5.23655 -6.20118,-5.23655 -6.20118,-14.91728 0,-9.57737 5.85667,-15.15843 5.89111,-5.61551 16.12305,-5.61551 9.43957,0 14.19381,4.78869 4.75423,4.75423 4.75423,13.71149 z m -12.33345,-7.26915 q -0.10335,-3.89296 -1.92925,-5.85667 -1.8259,-1.96371 -5.68441,-1.96371 -3.58291,0 -5.89112,1.86036 -2.30822,1.86035 -2.58383,5.96002 z" />
        <path
           id="path1073"
           d="m 257.67165,227.89413 q 0,5.99447 -5.37436,9.68072 -5.37435,3.65181 -14.71056,3.65181 -5.16765,0 -9.37067,-0.96463 -4.20302,-0.96463 -6.75239,-2.13596 v -10.19749 h 1.13688 q 0.93018,0.65457 2.13596,1.44694 1.24024,0.75792 3.47955,1.65365 1.92926,0.79237 4.37528,1.37804 2.44601,0.55121 5.23654,0.55121 3.65181,0 5.40881,-0.79237 1.757,-0.82682 1.757,-2.41157 0,-1.41249 -1.03353,-2.03261 -1.03353,-0.65457 -3.92741,-1.24023 -1.37804,-0.31006 -3.75516,-0.65457 -2.34267,-0.37896 -4.27192,-0.89573 -5.271,-1.37804 -7.82037,-4.27192 -2.54938,-2.92833 -2.54938,-7.26915 0,-5.58106 5.271,-9.26732 5.30545,-3.7207 14.46941,-3.7207 4.34083,0 8.30269,0.89572 3.99631,0.86128 6.23563,1.86036 v 9.78407 h -1.06798 q -2.75608,-1.8948 -6.30453,-3.06613 -3.514,-1.20579 -7.13135,-1.20579 -2.99724,0 -5.0643,0.82683 -2.03261,0.82682 -2.03261,2.34266 0,1.37804 0.93018,2.10151 0.93018,0.72347 4.37527,1.44694 1.89481,0.37896 4.06522,0.75792 2.20486,0.34451 4.40973,0.89573 4.89203,1.27469 7.2347,4.03076 2.34267,2.72163 2.34267,6.8213 z" />
        <path
           id="path1075"
           d="m 305.0073,224.34568 h -2.41157 q -6.06337,0 -8.785,2.41157 -2.72163,2.37711 -2.72163,8.50939 v 5.06429 q 0,6.54569 -3.99631,9.92188 -3.96186,3.41065 -10.64535,3.41065 h -9.43957 v -7.71702 h 3.92741 q 2.06706,0 3.72071,-0.31006 1.68809,-0.31006 2.82498,-1.17133 1.17133,-0.89573 1.757,-2.61828 0.58566,-1.68809 0.58566,-4.37527 v -3.75516 q 0,-4.82313 2.68718,-8.06153 2.72163,-3.23839 7.71702,-5.13319 v -0.82682 q -4.99539,-1.89481 -7.71702,-5.1332 -2.68718,-3.23839 -2.68718,-8.06153 v -3.75516 q 0,-2.68717 -0.58566,-4.37527 -0.58567,-1.72255 -1.757,-2.61827 -1.13689,-0.86128 -2.82498,-1.17134 -1.65365,-0.31006 -3.72071,-0.31006 h -3.92741 v -7.71702 h 9.43957 q 6.68349,0 10.64535,3.41065 3.99631,3.3762 3.99631,9.92188 v 5.0643 q 0,6.13227 2.72163,8.54384 2.72163,2.37712 8.785,2.37712 h 2.41157 z" />
      </g>
      <rect
         y="-40.065468"
         x="-388.55948"
         height="343.95834"
         width="1005.4167"
         id="rect901"
         style="fill:#ff5555;stroke-width:5.29167" />
      <text
         id="text905"
         y="259.98523"
         x="-347.32199"
         style="font-style:normal;font-weight:normal;font-size:10.5833px;line-height:1.25;font-family:sans-serif;fill:#000000;fill-opacity:1;stroke:none;stroke-width:0.264583"
         xml:space="preserve"><tspan
           id="tspan907"
           style="font-size:352.778px;stroke-width:0.264583"
           y="259.98523"
           x="-347.32199"
           sodipodi:role="line">FLAG</tspan></text>
    </g>
  </g>
</svg>
